<svg viewBox="0 0 141 32" fill="none" xmlns="http://www.w3.org/2000/svg">
								<path d="M42.1528 11.5345C42.1528 9.18024 42.9942 7.2175 44.677 5.64623C46.3598 4.07497 48.4114 3.28845 50.832 3.28845C53.6651 3.28845 55.9657 4.37392 57.7339 6.5413L55.2625 8.35813C54.1812 6.82779 52.7038 6.06263 50.832 6.06263C49.3037 6.06263 47.9989 6.6018 46.9177 7.6766C45.8346 8.75317 45.2949 10.0397 45.2949 11.5345C45.2949 13.0292 45.8364 14.3175 46.9177 15.3941C47.9989 16.4707 49.3037 17.0081 50.832 17.0081C52.2058 17.0081 53.3816 16.6219 54.3611 15.8479C55.3406 15.0738 55.9912 14.031 56.3183 12.7196H50.8066V9.94541H59.5112V12.038C59.5112 13.7357 58.8497 15.3514 57.5286 16.88C55.8621 18.8124 53.6306 19.7805 50.832 19.7805C48.4114 19.7805 46.3598 18.994 44.677 17.4227C42.996 15.8514 42.1528 13.8869 42.1528 11.5345Z" fill="white"/>
								<path d="M63.2983 19.4513V12.7178H61.3666V9.94544H63.2983V3.61413H75.7119V6.3883H66.2859V9.94544H72.8534V12.7178H66.2859V16.6789H75.7119V19.4513H63.2983Z" fill="white"/>
								<path d="M77.2585 19.4531L83.1554 6.23705H79.4464V3.61413H86.1429L92.9939 19.4531H89.7774L88.5453 16.4761H81.7034L80.4586 19.4531H77.2585ZM82.7629 13.8531H87.4659L85.138 8.21581L82.7629 13.8531Z" fill="white"/>
								<path d="M95.9033 19.4531V14.4599H93.9716V11.6858H95.9033V3.61413H103.605C105.32 3.61413 106.721 4.1017 107.803 5.07684C108.884 6.05199 109.425 7.37234 109.425 9.03614C109.425 10.1625 109.073 11.1537 108.37 12.0114C107.665 12.8691 106.756 13.467 105.64 13.8015L109.684 19.4513H105.922L102.549 14.4581H98.8909V19.4513H95.9033V19.4531ZM98.8909 6.3883V11.684H103.372C104.248 11.684 104.977 11.4526 105.562 10.99C106.145 10.5273 106.438 9.87604 106.438 9.03614C106.438 8.17844 106.151 7.5236 105.575 7.06806C105 6.6143 104.266 6.38652 103.372 6.38652H98.8909V6.3883Z" fill="white"/>
								<path d="M117.976 19.7805L110.816 3.61413H114.034L117.976 13.2997L121.915 3.61413H125.134L117.976 19.7805Z" fill="white"/>
								<path d="M141 19.7809L130.569 9.74302V19.4535H127.581V3.29782L138.012 13.334V3.61456H141V19.7809Z" fill="white"/>
								<path d="M52.2058 26.1848C52.2058 25.4623 52.4638 24.8609 52.9799 24.3786C53.496 23.8964 54.1248 23.6562 54.8662 23.6562C55.7349 23.6562 56.44 23.9889 56.9815 24.6544L56.2237 25.2114C55.893 24.7434 55.4405 24.5085 54.8662 24.5085C54.3974 24.5085 53.9976 24.674 53.665 25.0032C53.3343 25.3342 53.1689 25.7275 53.1689 26.1866C53.1689 26.6457 53.3343 27.0389 53.665 27.3699C53.9976 27.6991 54.3974 27.8646 54.8662 27.8646C55.286 27.8646 55.6477 27.7454 55.9475 27.5087C56.2473 27.272 56.4472 26.9517 56.5472 26.5496H54.8572V25.699H57.5249V26.3414C57.5249 26.861 57.3231 27.3574 56.9179 27.8254C56.4073 28.418 55.724 28.7134 54.8644 28.7134C54.1212 28.7134 53.4942 28.4732 52.9781 27.9909C52.4638 27.5087 52.2058 26.9072 52.2058 26.1848Z" fill="white"/>
								<path d="M61.9027 28.6119V26.5477H61.3103V25.6971H61.9027V23.7575H65.708V24.6063H62.8186V25.6971H64.8321V26.5477H62.8186V27.7613H65.708V28.6119H61.9027Z" fill="white"/>
								<path d="M69.397 28.6119L71.2052 24.5601H70.0676V23.7558H72.1211L74.2218 28.6119H73.235L72.8571 27.699H70.76L70.3783 28.6119H69.397ZM71.0852 26.8965H72.5281L71.814 25.1687L71.0852 26.8965Z" fill="white"/>
								<path d="M78.3269 28.6137V27.0816H77.7344V26.231H78.3269V23.7575H80.6875C81.2145 23.7575 81.6415 23.907 81.9759 24.206C82.3066 24.5049 82.4738 24.9106 82.4738 25.4196C82.4738 25.7648 82.3648 26.0691 82.1485 26.3324C81.9323 26.5958 81.6542 26.7791 81.3126 26.8805L82.5519 28.6137H81.3998L80.3658 27.0816H79.2446V28.6137H78.3269ZM79.2427 24.6063V26.2292H80.6166C80.8837 26.2292 81.1072 26.158 81.2871 26.0175C81.4671 25.8769 81.5561 25.6758 81.5561 25.4178C81.5561 25.1544 81.4671 24.9533 81.2926 24.8145C81.1145 24.6757 80.891 24.6063 80.6184 24.6063H79.2427Z" fill="white"/>
								<path d="M88.3091 28.7133L86.1139 23.7575H87.0988L88.3091 26.7257L89.5157 23.7575H90.5043L88.3091 28.7133Z" fill="white"/>
								<path d="M98.582 28.7134L95.3837 25.6367V28.6119H94.4678V23.6597L97.6661 26.7364V23.7576H98.582V28.7134Z" fill="white"/>
								<path d="M103.13 28.2418C103.13 28.1084 103.176 27.9963 103.269 27.9055C103.361 27.8165 103.476 27.7703 103.612 27.7703C103.748 27.7703 103.863 27.8165 103.954 27.9055C104.046 27.9963 104.094 28.1084 104.094 28.2418C104.094 28.3771 104.046 28.4892 103.954 28.5782C103.863 28.6689 103.748 28.7134 103.612 28.7134C103.479 28.7134 103.367 28.6671 103.272 28.5746C103.178 28.4821 103.13 28.37 103.13 28.2418Z" fill="white"/>
								<path d="M112.36 27.1902L113.104 27.7169C112.56 28.3806 111.855 28.7152 110.986 28.7152C110.243 28.7152 109.616 28.4732 109.1 27.9909C108.584 27.5087 108.326 26.9072 108.326 26.1865C108.326 25.4641 108.584 24.8626 109.1 24.3804C109.616 23.8982 110.245 23.6579 110.986 23.6579C111.855 23.6579 112.56 23.9907 113.104 24.6544L112.346 25.2114C112.015 24.7434 111.563 24.5067 110.988 24.5067C110.519 24.5067 110.12 24.6722 109.787 25.0014C109.456 25.3306 109.291 25.7257 109.291 26.1848C109.291 26.6439 109.456 27.0371 109.787 27.3681C110.12 27.6973 110.519 27.8628 110.988 27.8628C111.566 27.8628 112.022 27.6386 112.36 27.1902Z" fill="white"/>
								<path d="M116.987 26.1848C116.987 25.4623 117.245 24.8609 117.761 24.3786C118.277 23.8964 118.906 23.6562 119.647 23.6562C120.391 23.6562 121.019 23.8964 121.534 24.3786C122.05 24.8609 122.308 25.4623 122.308 26.1848C122.308 26.9072 122.05 27.5087 121.534 27.9909C121.018 28.4714 120.389 28.7134 119.647 28.7134C118.904 28.7134 118.277 28.4732 117.761 27.9909C117.245 27.5087 116.987 26.9072 116.987 26.1848ZM117.95 26.1848C117.95 26.6439 118.117 27.0371 118.448 27.3681C118.781 27.6973 119.18 27.8628 119.649 27.8628C120.118 27.8628 120.518 27.6973 120.849 27.3681C121.181 27.0389 121.346 26.6439 121.346 26.1848C121.346 25.7257 121.181 25.3324 120.849 25.0014C120.516 24.6722 120.118 24.5067 119.649 24.5067C119.18 24.5067 118.781 24.6722 118.448 25.0014C118.117 25.3324 117.95 25.7257 117.95 26.1848Z" fill="white"/>
								<path d="M126.542 28.6119V23.6579L128.745 25.8396L130.947 23.6579V28.6119H130.033V25.6118L128.745 26.9197L127.458 25.6118V28.6119H126.542Z" fill="white"/>
								<path d="M41.2569 0H41.0861L0 0.019574L13.1023 22.2414H24.6255L29.7846 13.4901L31.7945 13.4705H33.3137L35.3 10.1002L22.6065 10.102L20.6366 13.4705H23.7278L18.9212 21.4905L11.1615 6.75127L37.2844 6.73703L41.2569 0Z" fill="white"/>
								<path d="M18.8485 32L24.2112 22.9052H13.484L18.8485 32Z" fill="white"/>
							</svg>